<svg xmlns="http://www.w3.org/2000/svg" width="19" height="20"><path fill="#171717" d="M18.75 6.114v8.593c0 2.918-2.322 5.292-5.175 5.292H5.174C2.32 20-.001 17.625-.001 14.707V6.114C0 3.196 2.321.822 5.174.822h8.401c2.853 0 5.174 2.374 5.174 5.292zm-1.664 8.593V6.114c0-1.98-1.575-3.59-3.511-3.59H5.174c-1.936 0-3.511 1.61-3.511 3.59v8.593c0 1.98 1.575 3.591 3.51 3.591h8.402c1.936 0 3.51-1.611 3.51-3.591zm-2.88-4.296c0 2.724-2.168 4.941-4.832 4.941-2.664 0-4.831-2.217-4.831-4.941 0-2.725 2.167-4.941 4.831-4.941 2.664 0 4.832 2.216 4.832 4.94zm-1.664 0c0-1.787-1.42-3.24-3.168-3.24-1.746 0-3.168 1.453-3.168 3.24 0 1.786 1.422 3.24 3.168 3.24 1.747 0 3.168-1.454 3.168-3.24zm2.73-6.02a1.267 1.267 0 010 1.766 1.217 1.217 0 01-.864.365c-.32 0-.635-.134-.861-.365a1.267 1.267 0 010-1.765c.226-.233.54-.365.861-.365.322 0 .637.132.863.365z"/></svg>