<svg xmlns="http://www.w3.org/2000/svg" width="12" height="13"><path d="M9.609 8.172c-.565 0-1.073.243-1.433.63L3.962 6.695c.014-.098.024-.199.024-.302 0-.1-.01-.198-.023-.294l4.208-2.084c.36.39.87.635 1.438.635 1.093 0 1.98-.905 1.98-2.02 0-1.117-.887-2.022-1.98-2.022-1.094 0-1.98.905-1.98 2.021 0 .1.01.198.024.295L3.444 5.007c-.36-.39-.87-.635-1.438-.635-1.094 0-1.98.905-1.98 2.021 0 1.117.886 2.021 1.98 2.021.564 0 1.072-.242 1.433-.63l4.214 2.107a2.073 2.073 0 00-.025.302c0 1.117.886 2.021 1.98 2.021 1.093 0 1.98-.904 1.98-2.02 0-1.117-.887-2.022-1.98-2.022z"/></svg>