<svg xmlns="http://www.w3.org/2000/svg" width="17" height="15"><path fill="#171717" d="M16.886.654a6.828 6.828 0 01-2.208.877A3.403 3.403 0 0012.142.39c-1.92 0-3.476 1.62-3.476 3.615 0 .283.03.56.09.824-2.888-.15-5.45-1.59-7.164-3.778-.3.533-.47 1.154-.47 1.817 0 1.255.614 2.362 1.546 3.01a3.366 3.366 0 01-1.574-.455v.046c0 1.752 1.198 3.212 2.787 3.545a3.381 3.381 0 01-1.57.062c.443 1.436 1.726 2.481 3.246 2.511a6.806 6.806 0 01-5.145 1.497 9.566 9.566 0 005.328 1.625c6.392 0 9.888-5.51 9.888-10.287l-.011-.469a7.167 7.167 0 001.737-1.869 6.753 6.753 0 01-1.996.57 3.615 3.615 0 001.528-2z"/></svg>